<mxfile host="app.diagrams.net" agent="Mozilla/5.0 (Windows NT 10.0; Win64; x64) AppleWebKit/537.36 (KHTML, like Gecko) Chrome/140.0.0.0 Safari/537.36" version="27.1.6">
  <diagram name="페이지-1" id="sWINlGlDMffN-wUPXl0F">
    <mxGraphModel dx="1703" dy="1855" grid="1" gridSize="10" guides="1" tooltips="1" connect="1" arrows="1" fold="1" page="1" pageScale="1" pageWidth="827" pageHeight="1169" math="0" shadow="0">
      <root>
        <mxCell id="0" />
        <mxCell id="1" parent="0" />
        <mxCell id="j3VuG2Yy0K6IMK1k3K5E-21" value="Availability Zone" style="fillColor=none;strokeColor=#147EBA;dashed=1;verticalAlign=top;fontStyle=0;fontColor=#147EBA;whiteSpace=wrap;html=1;" parent="1" vertex="1">
          <mxGeometry x="89" y="210" width="259" height="820" as="geometry" />
        </mxCell>
        <mxCell id="j3VuG2Yy0K6IMK1k3K5E-3" value="VPC" style="points=[[0,0],[0.25,0],[0.5,0],[0.75,0],[1,0],[1,0.25],[1,0.5],[1,0.75],[1,1],[0.75,1],[0.5,1],[0.25,1],[0,1],[0,0.75],[0,0.5],[0,0.25]];outlineConnect=0;gradientColor=none;html=1;whiteSpace=wrap;fontSize=12;fontStyle=0;container=1;pointerEvents=0;collapsible=0;recursiveResize=0;shape=mxgraph.aws4.group;grIcon=mxgraph.aws4.group_vpc2;strokeColor=#8C4FFF;fillColor=none;verticalAlign=top;align=left;spacingLeft=30;fontColor=#AAB7B8;dashed=0;" parent="1" vertex="1">
          <mxGeometry x="49" y="240" width="720" height="750" as="geometry" />
        </mxCell>
        <mxCell id="j3VuG2Yy0K6IMK1k3K5E-24" value="" style="sketch=0;outlineConnect=0;fontColor=#232F3E;gradientColor=none;fillColor=#8C4FFF;strokeColor=none;dashed=0;verticalLabelPosition=bottom;verticalAlign=top;align=center;html=1;fontSize=12;fontStyle=0;aspect=fixed;pointerEvents=1;shape=mxgraph.aws4.application_load_balancer;" parent="j3VuG2Yy0K6IMK1k3K5E-3" vertex="1">
          <mxGeometry x="343.5" y="75" width="40" height="40" as="geometry" />
        </mxCell>
        <mxCell id="j3VuG2Yy0K6IMK1k3K5E-36" value="Security group" style="fillColor=none;strokeColor=#DD3522;verticalAlign=top;fontStyle=0;fontColor=#DD3522;whiteSpace=wrap;html=1;" parent="j3VuG2Yy0K6IMK1k3K5E-3" vertex="1">
          <mxGeometry x="316" y="50" width="95" height="80" as="geometry" />
        </mxCell>
        <mxCell id="j3VuG2Yy0K6IMK1k3K5E-13" value="Private subnet" style="points=[[0,0],[0.25,0],[0.5,0],[0.75,0],[1,0],[1,0.25],[1,0.5],[1,0.75],[1,1],[0.75,1],[0.5,1],[0.25,1],[0,1],[0,0.75],[0,0.5],[0,0.25]];outlineConnect=0;gradientColor=none;html=1;whiteSpace=wrap;fontSize=12;fontStyle=0;container=1;pointerEvents=0;collapsible=0;recursiveResize=0;shape=mxgraph.aws4.group;grIcon=mxgraph.aws4.group_security_group;grStroke=0;strokeColor=#00A4A6;fillColor=#E6F6F7;verticalAlign=top;align=left;spacingLeft=30;fontColor=#147EBA;dashed=0;" parent="j3VuG2Yy0K6IMK1k3K5E-3" vertex="1">
          <mxGeometry x="90" y="470" width="160" height="170" as="geometry" />
        </mxCell>
        <mxCell id="j3VuG2Yy0K6IMK1k3K5E-26" value="" style="sketch=0;points=[[0,0,0],[0.25,0,0],[0.5,0,0],[0.75,0,0],[1,0,0],[0,1,0],[0.25,1,0],[0.5,1,0],[0.75,1,0],[1,1,0],[0,0.25,0],[0,0.5,0],[0,0.75,0],[1,0.25,0],[1,0.5,0],[1,0.75,0]];outlineConnect=0;fontColor=#232F3E;fillColor=#ED7100;strokeColor=#ffffff;dashed=0;verticalLabelPosition=bottom;verticalAlign=top;align=center;html=1;fontSize=12;fontStyle=0;aspect=fixed;shape=mxgraph.aws4.resourceIcon;resIcon=mxgraph.aws4.ec2;" parent="j3VuG2Yy0K6IMK1k3K5E-13" vertex="1">
          <mxGeometry x="47.5" y="65" width="65" height="65" as="geometry" />
        </mxCell>
        <mxCell id="j3VuG2Yy0K6IMK1k3K5E-39" value="Security group" style="fillColor=none;strokeColor=#DD3522;verticalAlign=top;fontStyle=0;fontColor=#DD3522;whiteSpace=wrap;html=1;" parent="j3VuG2Yy0K6IMK1k3K5E-13" vertex="1">
          <mxGeometry x="8.75" y="35" width="142.5" height="105" as="geometry" />
        </mxCell>
        <mxCell id="j3VuG2Yy0K6IMK1k3K5E-6" value="Public subnet" style="points=[[0,0],[0.25,0],[0.5,0],[0.75,0],[1,0],[1,0.25],[1,0.5],[1,0.75],[1,1],[0.75,1],[0.5,1],[0.25,1],[0,1],[0,0.75],[0,0.5],[0,0.25]];outlineConnect=0;gradientColor=none;html=1;whiteSpace=wrap;fontSize=12;fontStyle=0;container=1;pointerEvents=0;collapsible=0;recursiveResize=0;shape=mxgraph.aws4.group;grIcon=mxgraph.aws4.group_security_group;grStroke=0;strokeColor=#7AA116;fillColor=#F2F6E8;verticalAlign=top;align=left;spacingLeft=30;fontColor=#248814;dashed=0;" parent="j3VuG2Yy0K6IMK1k3K5E-3" vertex="1">
          <mxGeometry x="130" y="250" width="160" height="140" as="geometry" />
        </mxCell>
        <mxCell id="j3VuG2Yy0K6IMK1k3K5E-28" value="" style="sketch=0;points=[[0,0,0],[0.25,0,0],[0.5,0,0],[0.75,0,0],[1,0,0],[0,1,0],[0.25,1,0],[0.5,1,0],[0.75,1,0],[1,1,0],[0,0.25,0],[0,0.5,0],[0,0.75,0],[1,0.25,0],[1,0.5,0],[1,0.75,0]];outlineConnect=0;fontColor=#232F3E;fillColor=#ED7100;strokeColor=#ffffff;dashed=0;verticalLabelPosition=bottom;verticalAlign=top;align=center;html=1;fontSize=12;fontStyle=0;aspect=fixed;shape=mxgraph.aws4.resourceIcon;resIcon=mxgraph.aws4.ec2;" parent="j3VuG2Yy0K6IMK1k3K5E-6" vertex="1">
          <mxGeometry x="46.25" y="42.5" width="65" height="65" as="geometry" />
        </mxCell>
        <mxCell id="j3VuG2Yy0K6IMK1k3K5E-25" value="" style="edgeStyle=orthogonalEdgeStyle;html=1;endArrow=none;elbow=vertical;startArrow=block;startFill=1;strokeColor=#545B64;rounded=0;" parent="j3VuG2Yy0K6IMK1k3K5E-3" source="j3VuG2Yy0K6IMK1k3K5E-28" target="j3VuG2Yy0K6IMK1k3K5E-24" edge="1">
          <mxGeometry width="100" relative="1" as="geometry">
            <mxPoint x="110" y="170.06" as="sourcePoint" />
            <mxPoint x="210" y="120.06" as="targetPoint" />
            <Array as="points">
              <mxPoint x="210" y="95" />
            </Array>
          </mxGeometry>
        </mxCell>
        <mxCell id="j3VuG2Yy0K6IMK1k3K5E-45" value="" style="sketch=0;outlineConnect=0;fontColor=#232F3E;gradientColor=none;fillColor=#8C4FFF;strokeColor=none;dashed=0;verticalLabelPosition=bottom;verticalAlign=top;align=center;html=1;fontSize=12;fontStyle=0;aspect=fixed;pointerEvents=1;shape=mxgraph.aws4.nat_gateway;" parent="j3VuG2Yy0K6IMK1k3K5E-3" vertex="1">
          <mxGeometry x="344" y="475" width="40" height="40" as="geometry" />
        </mxCell>
        <mxCell id="j3VuG2Yy0K6IMK1k3K5E-48" value="" style="edgeStyle=orthogonalEdgeStyle;html=1;endArrow=block;elbow=vertical;startArrow=none;endFill=1;strokeColor=#545B64;rounded=0;" parent="j3VuG2Yy0K6IMK1k3K5E-3" source="j3VuG2Yy0K6IMK1k3K5E-45" target="j3VuG2Yy0K6IMK1k3K5E-26" edge="1">
          <mxGeometry width="100" relative="1" as="geometry">
            <mxPoint x="330" y="430" as="sourcePoint" />
            <mxPoint x="430" y="430" as="targetPoint" />
            <Array as="points">
              <mxPoint x="170" y="495" />
            </Array>
          </mxGeometry>
        </mxCell>
        <mxCell id="j3VuG2Yy0K6IMK1k3K5E-7" value="Public subnet" style="points=[[0,0],[0.25,0],[0.5,0],[0.75,0],[1,0],[1,0.25],[1,0.5],[1,0.75],[1,1],[0.75,1],[0.5,1],[0.25,1],[0,1],[0,0.75],[0,0.5],[0,0.25]];outlineConnect=0;gradientColor=none;html=1;whiteSpace=wrap;fontSize=12;fontStyle=0;container=1;pointerEvents=0;collapsible=0;recursiveResize=0;shape=mxgraph.aws4.group;grIcon=mxgraph.aws4.group_security_group;grStroke=0;strokeColor=#7AA116;fillColor=#F2F6E8;verticalAlign=top;align=left;spacingLeft=30;fontColor=#248814;dashed=0;" parent="1" vertex="1">
          <mxGeometry x="489" y="490" width="251" height="540" as="geometry" />
        </mxCell>
        <mxCell id="j3VuG2Yy0K6IMK1k3K5E-27" value="" style="sketch=0;points=[[0,0,0],[0.25,0,0],[0.5,0,0],[0.75,0,0],[1,0,0],[0,1,0],[0.25,1,0],[0.5,1,0],[0.75,1,0],[1,1,0],[0,0.25,0],[0,0.5,0],[0,0.75,0],[1,0.25,0],[1,0.5,0],[1,0.75,0]];outlineConnect=0;fontColor=#232F3E;fillColor=#ED7100;strokeColor=#ffffff;dashed=0;verticalLabelPosition=bottom;verticalAlign=top;align=center;html=1;fontSize=12;fontStyle=0;aspect=fixed;shape=mxgraph.aws4.resourceIcon;resIcon=mxgraph.aws4.ec2;" parent="j3VuG2Yy0K6IMK1k3K5E-7" vertex="1">
          <mxGeometry x="53" y="40" width="70" height="70" as="geometry" />
        </mxCell>
        <mxCell id="Fg4t-CbjVhH4zC_R5TBU-3" style="edgeStyle=orthogonalEdgeStyle;rounded=0;orthogonalLoop=1;jettySize=auto;html=1;exitX=0;exitY=0.5;exitDx=0;exitDy=0;exitPerimeter=0;" parent="j3VuG2Yy0K6IMK1k3K5E-7" source="j3VuG2Yy0K6IMK1k3K5E-27" target="j3VuG2Yy0K6IMK1k3K5E-27" edge="1">
          <mxGeometry relative="1" as="geometry" />
        </mxCell>
        <mxCell id="Fg4t-CbjVhH4zC_R5TBU-4" style="edgeStyle=orthogonalEdgeStyle;rounded=0;orthogonalLoop=1;jettySize=auto;html=1;exitX=0;exitY=0.5;exitDx=0;exitDy=0;exitPerimeter=0;" parent="j3VuG2Yy0K6IMK1k3K5E-7" source="j3VuG2Yy0K6IMK1k3K5E-27" target="j3VuG2Yy0K6IMK1k3K5E-27" edge="1">
          <mxGeometry relative="1" as="geometry" />
        </mxCell>
        <mxCell id="j3VuG2Yy0K6IMK1k3K5E-22" value="Availability Zone" style="fillColor=none;strokeColor=#147EBA;dashed=1;verticalAlign=top;fontStyle=0;fontColor=#147EBA;whiteSpace=wrap;html=1;" parent="j3VuG2Yy0K6IMK1k3K5E-7" vertex="1">
          <mxGeometry y="-280" width="251" height="820" as="geometry" />
        </mxCell>
        <mxCell id="j3VuG2Yy0K6IMK1k3K5E-20" value="Private subnet" style="points=[[0,0],[0.25,0],[0.5,0],[0.75,0],[1,0],[1,0.25],[1,0.5],[1,0.75],[1,1],[0.75,1],[0.5,1],[0.25,1],[0,1],[0,0.75],[0,0.5],[0,0.25]];outlineConnect=0;gradientColor=none;html=1;whiteSpace=wrap;fontSize=12;fontStyle=0;container=1;pointerEvents=0;collapsible=0;recursiveResize=0;shape=mxgraph.aws4.group;grIcon=mxgraph.aws4.group_security_group;grStroke=0;strokeColor=#00A4A6;fillColor=#E6F6F7;verticalAlign=top;align=left;spacingLeft=30;fontColor=#147EBA;dashed=0;" parent="1" vertex="1">
          <mxGeometry x="523.5" y="800" width="160" height="170" as="geometry" />
        </mxCell>
        <mxCell id="j3VuG2Yy0K6IMK1k3K5E-31" value="" style="sketch=0;points=[[0,0,0],[0.25,0,0],[0.5,0,0],[0.75,0,0],[1,0,0],[0,1,0],[0.25,1,0],[0.5,1,0],[0.75,1,0],[1,1,0],[0,0.25,0],[0,0.5,0],[0,0.75,0],[1,0.25,0],[1,0.5,0],[1,0.75,0]];outlineConnect=0;fontColor=#232F3E;fillColor=#C925D1;strokeColor=#ffffff;dashed=0;verticalLabelPosition=bottom;verticalAlign=top;align=center;html=1;fontSize=12;fontStyle=0;aspect=fixed;shape=mxgraph.aws4.resourceIcon;resIcon=mxgraph.aws4.rds;" parent="j3VuG2Yy0K6IMK1k3K5E-20" vertex="1">
          <mxGeometry x="47.5" y="80" width="65" height="65" as="geometry" />
        </mxCell>
        <mxCell id="j3VuG2Yy0K6IMK1k3K5E-40" value="Security group" style="fillColor=none;strokeColor=#DD3522;verticalAlign=top;fontStyle=0;fontColor=#DD3522;whiteSpace=wrap;html=1;" parent="j3VuG2Yy0K6IMK1k3K5E-20" vertex="1">
          <mxGeometry x="8.75" y="50" width="142.5" height="110" as="geometry" />
        </mxCell>
        <mxCell id="j3VuG2Yy0K6IMK1k3K5E-30" value="" style="edgeStyle=orthogonalEdgeStyle;html=1;endArrow=none;elbow=vertical;startArrow=block;startFill=1;strokeColor=#545B64;rounded=0;" parent="1" source="j3VuG2Yy0K6IMK1k3K5E-27" target="j3VuG2Yy0K6IMK1k3K5E-24" edge="1">
          <mxGeometry width="100" relative="1" as="geometry">
            <mxPoint x="408" y="540" as="sourcePoint" />
            <mxPoint x="547" y="500" as="targetPoint" />
            <Array as="points">
              <mxPoint x="576" y="335" />
            </Array>
          </mxGeometry>
        </mxCell>
        <object label="" InternetGateway="internetgateway" id="j3VuG2Yy0K6IMK1k3K5E-23">
          <mxCell style="sketch=0;outlineConnect=0;fontColor=#232F3E;gradientColor=none;fillColor=#8C4FFF;strokeColor=none;dashed=0;verticalLabelPosition=bottom;verticalAlign=top;align=center;html=1;fontSize=12;fontStyle=0;aspect=fixed;pointerEvents=1;shape=mxgraph.aws4.internet_gateway;" parent="1" vertex="1">
            <mxGeometry x="393" y="210" width="40" height="40" as="geometry" />
          </mxCell>
        </object>
        <mxCell id="j3VuG2Yy0K6IMK1k3K5E-35" value="" style="endArrow=none;html=1;rounded=0;exitX=0.996;exitY=0.423;exitDx=0;exitDy=0;exitPerimeter=0;" parent="1" source="j3VuG2Yy0K6IMK1k3K5E-28" edge="1">
          <mxGeometry width="50" height="50" relative="1" as="geometry">
            <mxPoint x="383" y="465" as="sourcePoint" />
            <mxPoint x="540" y="560" as="targetPoint" />
            <Array as="points">
              <mxPoint x="380" y="560" />
              <mxPoint x="440" y="560" />
            </Array>
          </mxGeometry>
        </mxCell>
        <mxCell id="j3VuG2Yy0K6IMK1k3K5E-41" value="" style="edgeStyle=orthogonalEdgeStyle;html=1;endArrow=block;elbow=vertical;startArrow=none;endFill=1;strokeColor=#545B64;rounded=0;" parent="1" source="j3VuG2Yy0K6IMK1k3K5E-26" target="j3VuG2Yy0K6IMK1k3K5E-31" edge="1">
          <mxGeometry width="100" relative="1" as="geometry">
            <mxPoint x="379" y="690" as="sourcePoint" />
            <mxPoint x="479" y="690" as="targetPoint" />
            <Array as="points">
              <mxPoint x="219" y="900" />
            </Array>
          </mxGeometry>
        </mxCell>
        <mxCell id="j3VuG2Yy0K6IMK1k3K5E-43" value="Auto Scaling group" style="points=[[0,0],[0.25,0],[0.5,0],[0.75,0],[1,0],[1,0.25],[1,0.5],[1,0.75],[1,1],[0.75,1],[0.5,1],[0.25,1],[0,1],[0,0.75],[0,0.5],[0,0.25]];outlineConnect=0;gradientColor=none;html=1;whiteSpace=wrap;fontSize=12;fontStyle=0;container=1;pointerEvents=0;collapsible=0;recursiveResize=0;shape=mxgraph.aws4.groupCenter;grIcon=mxgraph.aws4.group_auto_scaling_group;grStroke=1;strokeColor=#D86613;fillColor=none;verticalAlign=top;align=center;fontColor=#D86613;dashed=1;spacingTop=25;" parent="1" vertex="1">
          <mxGeometry x="139" y="430" width="550" height="220" as="geometry" />
        </mxCell>
        <mxCell id="j3VuG2Yy0K6IMK1k3K5E-46" value="" style="edgeStyle=orthogonalEdgeStyle;html=1;endArrow=block;elbow=vertical;startArrow=none;endFill=1;strokeColor=#545B64;rounded=0;" parent="1" target="j3VuG2Yy0K6IMK1k3K5E-45" edge="1">
          <mxGeometry width="100" relative="1" as="geometry">
            <mxPoint x="413" y="560" as="sourcePoint" />
            <mxPoint x="413" y="710" as="targetPoint" />
            <Array as="points" />
          </mxGeometry>
        </mxCell>
      </root>
    </mxGraphModel>
  </diagram>
</mxfile>
